<?xml version="1.0" encoding="UTF-8"?>
<svg xmlns="http://www.w3.org/2000/svg" xmlns:xlink="http://www.w3.org/1999/xlink" width="50pt" height="50pt" viewBox="0 0 50 50" version="1.1">
<g id="surface1">
<path style=" stroke:none;fill-rule:nonzero;fill:rgb(91.764706%,61.568627%,17.647059%);fill-opacity:1;" d="M 34.695312 47.027344 L 30.839844 47.027344 C 30.414062 47.027344 30.066406 46.683594 30.066406 46.257812 C 30.066406 45.835938 30.414062 45.488281 30.839844 45.488281 L 34.695312 45.488281 C 35.117188 45.488281 35.464844 45.835938 35.464844 46.257812 C 35.464844 46.683594 35.117188 47.027344 34.695312 47.027344 Z M 34.695312 47.027344 "/>
<path style=" stroke:none;fill-rule:nonzero;fill:rgb(91.764706%,61.568627%,17.647059%);fill-opacity:1;" d="M 33.921875 39.320312 L 31.609375 39.320312 C 31.1875 39.320312 30.839844 38.972656 30.839844 38.546875 C 30.839844 38.125 31.1875 37.777344 31.609375 37.777344 L 33.921875 37.777344 C 34.347656 37.777344 34.695312 38.125 34.695312 38.546875 C 34.695312 38.972656 34.347656 39.320312 33.921875 39.320312 Z M 33.921875 39.320312 "/>
<path style=" stroke:none;fill-rule:nonzero;fill:rgb(33.333333%,18.823529%,4.313725%);fill-opacity:1;" d="M 26.984375 23.898438 L 36.453125 23.898438 C 36.8125 23.898438 37.167969 24.003906 37.476562 24.195312 L 43.175781 27.753906 L 42.402344 30.839844 L 36.902344 27.722656 L 35.078125 26.527344 Z M 26.984375 23.898438 "/>
<path style=" stroke:none;fill-rule:nonzero;fill:rgb(0.784314%,49.411765%,16.470588%);fill-opacity:1;" d="M 33.621094 15.875 L 35.464844 13.105469 L 37.777344 16.960938 Z M 33.621094 15.875 "/>
<path style=" stroke:none;fill-rule:nonzero;fill:rgb(0.784314%,64.313725%,21.568627%);fill-opacity:1;" d="M 31.609375 14.648438 L 37.777344 16.960938 L 34.695312 23.898438 L 28.527344 21.585938 Z M 31.609375 14.648438 "/>
<path style=" stroke:none;fill-rule:nonzero;fill:rgb(99.215686%,78.823529%,65.098039%);fill-opacity:1;" d="M 20.046875 18.503906 L 15.417969 28.527344 L 18.503906 28.527344 L 20.816406 23.898438 Z M 20.046875 18.503906 "/>
<path style=" stroke:none;fill-rule:nonzero;fill:rgb(17.254902%,74.901961%,95.686275%);fill-opacity:1;" d="M 18.59375 21.652344 L 21.585938 23.898438 L 23.128906 21.585938 L 20.816406 17.730469 L 20.046875 18.503906 Z M 18.59375 21.652344 "/>
<path style=" stroke:none;fill-rule:nonzero;fill:rgb(82.745098%,16.862745%,22.352941%);fill-opacity:1;" d="M 10.792969 28.527344 L 30.839844 28.527344 C 33.394531 28.527344 35.464844 30.59375 35.464844 33.152344 C 35.464844 35.707031 33.394531 37.777344 30.839844 37.777344 L 10.792969 37.777344 Z M 10.792969 28.527344 "/>
<path style=" stroke:none;fill-rule:nonzero;fill:rgb(99.215686%,78.823529%,65.098039%);fill-opacity:1;" d="M 23.128906 8.480469 C 24.832031 8.480469 26.214844 9.863281 26.214844 11.566406 L 26.214844 13.105469 C 26.214844 14.808594 24.832031 16.191406 23.128906 16.191406 C 21.425781 16.191406 20.046875 14.808594 20.046875 13.105469 L 20.046875 11.566406 C 20.046875 9.863281 21.425781 8.480469 23.128906 8.480469 Z M 23.128906 8.480469 "/>
<path style=" stroke:none;fill-rule:nonzero;fill:rgb(40.784314%,23.137255%,5.098039%);fill-opacity:1;" d="M 26.214844 10.792969 L 21.585938 10.792969 L 20.046875 12.335938 L 18.925781 9.535156 C 18.664062 8.871094 18.742188 8.128906 19.132812 7.535156 C 19.671875 6.726562 20.6875 6.378906 21.605469 6.6875 L 22.359375 6.9375 L 22.960938 5.730469 C 23.496094 4.671875 24.75 4.195312 25.847656 4.632812 C 26.933594 5.070312 27.511719 6.25 27.191406 7.375 Z M 26.214844 10.792969 "/>
<path style=" stroke:none;fill-rule:nonzero;fill:rgb(0.784314%,58.823529%,89.803922%);fill-opacity:1;" d="M 21.585938 16.191406 L 20.046875 18.503906 L 20.046875 21.722656 C 20.046875 22.140625 20.140625 22.550781 20.328125 22.929688 L 23.128906 28.527344 L 26.984375 23.898438 L 25.441406 21.585938 L 24.671875 16.191406 Z M 21.585938 16.191406 "/>
<path style=" stroke:none;fill-rule:nonzero;fill:rgb(99.215686%,78.823529%,65.098039%);fill-opacity:1;" d="M 22.359375 21.585938 L 31.0625 23.597656 C 31.835938 23.773438 32.632812 23.398438 32.984375 22.691406 C 33.214844 22.230469 33.230469 21.691406 33.015625 21.222656 C 32.804688 20.753906 32.398438 20.398438 31.898438 20.261719 L 25.441406 18.503906 Z M 22.359375 21.585938 "/>
<path style=" stroke:none;fill-rule:nonzero;fill:rgb(17.254902%,74.901961%,95.686275%);fill-opacity:1;" d="M 25.441406 18.503906 L 25.023438 16.832031 C 24.820312 16.003906 24.066406 15.417969 23.210938 15.417969 C 22.632812 15.417969 22.089844 15.683594 21.734375 16.140625 C 21.382812 16.59375 21.257812 17.1875 21.394531 17.746094 L 22.359375 21.585938 Z M 25.441406 18.503906 "/>
<path style=" stroke:none;fill-rule:nonzero;fill:rgb(40.784314%,23.137255%,5.098039%);fill-opacity:1;" d="M 26.984375 23.898438 L 35.324219 25.988281 C 35.902344 26.128906 36.378906 26.527344 36.613281 27.074219 L 39.320312 33.152344 L 37.007812 35.464844 L 33.921875 28.527344 L 23.128906 28.527344 Z M 26.984375 23.898438 "/>
<path style=" stroke:none;fill-rule:nonzero;fill:rgb(79.607843%,79.607843%,79.607843%);fill-opacity:1;" d="M 43.175781 27.753906 L 44.714844 26.984375 L 47.027344 27.753906 L 45.488281 31.609375 L 42.402344 30.839844 Z M 43.175781 27.753906 "/>
<path style=" stroke:none;fill-rule:nonzero;fill:rgb(79.607843%,79.607843%,79.607843%);fill-opacity:1;" d="M 39.320312 33.152344 L 42.402344 34.695312 L 42.402344 37.007812 L 37.777344 37.777344 L 37.007812 35.464844 Z M 39.320312 33.152344 "/>
<path style=" stroke:none;fill-rule:nonzero;fill:rgb(82.745098%,16.862745%,22.352941%);fill-opacity:1;" d="M 10.695312 30.066406 L 8.382812 30.066406 C 7.960938 30.066406 7.613281 29.722656 7.613281 29.296875 C 7.613281 28.871094 7.960938 28.527344 8.382812 28.527344 L 10.695312 28.527344 C 11.121094 28.527344 11.46875 28.871094 11.46875 29.296875 C 11.46875 29.722656 11.121094 30.066406 10.695312 30.066406 Z M 10.695312 30.066406 "/>
<path style=" stroke:none;fill-rule:nonzero;fill:rgb(82.745098%,16.862745%,22.352941%);fill-opacity:1;" d="M 12.335938 38.546875 L 8.480469 38.546875 C 8.058594 38.546875 7.710938 38.203125 7.710938 37.777344 C 7.710938 37.355469 8.058594 37.007812 8.480469 37.007812 L 12.335938 37.007812 C 12.757812 37.007812 13.105469 37.355469 13.105469 37.777344 C 13.105469 38.203125 12.757812 38.546875 12.335938 38.546875 Z M 12.335938 38.546875 "/>
<path style=" stroke:none;fill-rule:nonzero;fill:rgb(79.607843%,79.607843%,79.607843%);fill-opacity:1;" d="M 10.792969 31.609375 L 30.839844 31.609375 C 31.691406 31.609375 32.378906 32.296875 32.378906 33.152344 C 32.378906 34.007812 31.691406 34.695312 30.839844 34.695312 L 10.792969 34.695312 Z M 10.792969 31.609375 "/>
<path style=" stroke:none;fill-rule:nonzero;fill:rgb(91.764706%,61.568627%,17.647059%);fill-opacity:1;" d="M 32.378906 47.027344 L 12.335938 47.027344 C 9.777344 47.027344 7.710938 44.960938 7.710938 42.402344 C 7.710938 39.847656 9.777344 37.777344 12.335938 37.777344 L 32.378906 37.777344 Z M 32.378906 47.027344 "/>
<path style=" stroke:none;fill-rule:nonzero;fill:rgb(79.607843%,79.607843%,79.607843%);fill-opacity:1;" d="M 32.378906 40.863281 L 12.335938 40.863281 C 11.480469 40.863281 10.792969 41.550781 10.792969 42.402344 C 10.792969 43.257812 11.480469 43.945312 12.335938 43.945312 L 32.378906 43.945312 Z M 32.378906 40.863281 "/>
<path style=" stroke:none;fill-rule:nonzero;fill:rgb(91.764706%,61.568627%,17.647059%);fill-opacity:1;" d="M 13.242188 16.828125 L 13.105469 16.960938 L 8.480469 16.960938 L 8.347656 16.828125 C 6.953125 15.433594 6.167969 13.535156 6.167969 11.566406 C 6.167969 9.007812 8.238281 6.9375 10.792969 6.9375 C 13.351562 6.9375 15.417969 9.007812 15.417969 11.566406 C 15.417969 13.535156 14.636719 15.433594 13.242188 16.828125 Z M 13.242188 16.828125 "/>
<path style=" stroke:none;fill-rule:nonzero;fill:rgb(76.470588%,51.372549%,14.509804%);fill-opacity:1;" d="M 12.882812 11.019531 C 12.578125 10.714844 12.089844 10.714844 11.789062 11.019531 L 10.792969 12.015625 L 9.796875 11.019531 C 9.496094 10.714844 9.007812 10.714844 8.707031 11.019531 C 8.402344 11.320312 8.402344 11.808594 8.707031 12.109375 L 10.023438 13.425781 L 10.023438 16.960938 C 10.023438 17.386719 10.371094 17.730469 10.792969 17.730469 C 11.21875 17.730469 11.566406 17.386719 11.566406 16.960938 L 11.566406 13.425781 L 12.882812 12.109375 C 13.183594 11.808594 13.183594 11.320312 12.882812 11.019531 Z M 12.882812 11.019531 "/>
<path style=" stroke:none;fill-rule:nonzero;fill:rgb(98.431373%,70.980392%,25.098039%);fill-opacity:1;" d="M 10.792969 4.625 C 10.371094 4.625 10.023438 4.277344 10.023438 3.855469 L 10.023438 2.3125 C 10.023438 1.890625 10.371094 1.542969 10.792969 1.542969 C 11.21875 1.542969 11.566406 1.890625 11.566406 2.3125 L 11.566406 3.855469 C 11.566406 4.277344 11.21875 4.625 10.792969 4.625 Z M 10.792969 4.625 "/>
<path style=" stroke:none;fill-rule:nonzero;fill:rgb(98.431373%,70.980392%,25.098039%);fill-opacity:1;" d="M 7.324219 5.558594 C 7.046875 5.558594 6.796875 5.410156 6.65625 5.171875 L 5.886719 3.835938 C 5.742188 3.597656 5.742188 3.300781 5.886719 3.058594 C 6.019531 2.820312 6.277344 2.671875 6.554688 2.671875 C 6.828125 2.671875 7.085938 2.820312 7.222656 3.066406 L 7.992188 4.402344 C 8.128906 4.636719 8.128906 4.933594 7.992188 5.171875 C 7.859375 5.410156 7.601562 5.558594 7.324219 5.558594 Z M 7.324219 5.558594 "/>
<path style=" stroke:none;fill-rule:nonzero;fill:rgb(98.431373%,70.980392%,25.098039%);fill-opacity:1;" d="M 4.785156 8.09375 C 4.652344 8.09375 4.515625 8.058594 4.402344 7.992188 L 3.066406 7.222656 C 2.699219 7.007812 2.578125 6.539062 2.789062 6.167969 C 3 5.800781 3.46875 5.671875 3.835938 5.886719 L 5.171875 6.65625 C 5.472656 6.828125 5.621094 7.1875 5.53125 7.523438 C 5.441406 7.863281 5.132812 8.09375 4.785156 8.09375 Z M 4.785156 8.09375 "/>
<path style=" stroke:none;fill-rule:nonzero;fill:rgb(98.431373%,70.980392%,25.098039%);fill-opacity:1;" d="M 3.855469 11.566406 L 2.3125 11.566406 C 1.890625 11.566406 1.542969 11.21875 1.542969 10.792969 C 1.542969 10.371094 1.890625 10.023438 2.3125 10.023438 L 3.855469 10.023438 C 4.277344 10.023438 4.625 10.371094 4.625 10.792969 C 4.625 11.21875 4.277344 11.566406 3.855469 11.566406 Z M 3.855469 11.566406 "/>
<path style=" stroke:none;fill-rule:nonzero;fill:rgb(98.431373%,70.980392%,25.098039%);fill-opacity:1;" d="M 3.449219 15.804688 C 3.101562 15.804688 2.792969 15.574219 2.703125 15.234375 C 2.613281 14.898438 2.761719 14.539062 3.066406 14.367188 L 4.402344 13.59375 C 4.765625 13.382812 5.234375 13.511719 5.449219 13.878906 C 5.660156 14.25 5.539062 14.71875 5.171875 14.929688 L 3.835938 15.703125 C 3.71875 15.765625 3.585938 15.804688 3.449219 15.804688 Z M 3.449219 15.804688 "/>
<path style=" stroke:none;fill-rule:nonzero;fill:rgb(98.431373%,70.980392%,25.098039%);fill-opacity:1;" d="M 14.261719 5.558594 C 13.988281 5.558594 13.730469 5.410156 13.59375 5.171875 C 13.460938 4.933594 13.460938 4.636719 13.59375 4.402344 L 14.367188 3.066406 C 14.5 2.820312 14.757812 2.671875 15.035156 2.671875 C 15.308594 2.671875 15.566406 2.820312 15.703125 3.058594 C 15.84375 3.300781 15.84375 3.597656 15.703125 3.835938 L 14.929688 5.171875 C 14.789062 5.410156 14.539062 5.558594 14.261719 5.558594 Z M 14.261719 5.558594 "/>
<path style=" stroke:none;fill-rule:nonzero;fill:rgb(79.607843%,79.607843%,79.607843%);fill-opacity:1;" d="M 13.105469 20.046875 L 11.566406 21.585938 L 10.023438 21.585938 L 8.480469 20.046875 L 8.480469 16.960938 L 13.105469 16.960938 Z M 13.105469 20.046875 "/>
<path style=" stroke:none;fill-rule:nonzero;fill:rgb(91.764706%,91.764706%,90.980392%);fill-opacity:1;" d="M 8.480469 20.046875 L 13.105469 20.046875 L 11.566406 21.585938 L 10.023438 21.585938 Z M 8.480469 20.046875 "/>
</g>
</svg>
